<?xml version="1.0" encoding="UTF-8" standalone="no"?>
<svg
   xmlns:dc="http://purl.org/dc/elements/1.1/"
   xmlns:cc="http://creativecommons.org/ns#"
   xmlns:rdf="http://www.w3.org/1999/02/22-rdf-syntax-ns#"
   xmlns:svg="http://www.w3.org/2000/svg"
   xmlns="http://www.w3.org/2000/svg"
   xmlns:sodipodi="http://sodipodi.sourceforge.net/DTD/sodipodi-0.dtd"
   xmlns:inkscape="http://www.inkscape.org/namespaces/inkscape"
   version="1.1"
   id="Layer_1"
   x="0px"
   y="0px"
   viewBox="0 0 100 40"
   xml:space="preserve"
   sodipodi:docname="logo.svg"
   width="100"
   height="40"
   inkscape:version="0.92.2 (30a58d1, 2017-08-07)"><metadata
     id="metadata3785"><rdf:RDF><cc:Work
         rdf:about=""><dc:format>image/svg+xml</dc:format><dc:type
           rdf:resource="http://purl.org/dc/dcmitype/StillImage" /><dc:title></dc:title></cc:Work></rdf:RDF></metadata><defs
     id="defs3783" /><sodipodi:namedview
     pagecolor="#ffffff"
     bordercolor="#666666"
     borderopacity="1"
     objecttolerance="10"
     gridtolerance="10"
     guidetolerance="10"
     inkscape:pageopacity="0"
     inkscape:pageshadow="2"
     inkscape:window-width="1920"
     inkscape:window-height="1031"
     id="namedview3781"
     showgrid="false"
     units="px"
     inkscape:zoom="12.006673"
     inkscape:cx="41.670935"
     inkscape:cy="32.161405"
     inkscape:window-x="0"
     inkscape:window-y="0"
     inkscape:window-maximized="1"
     inkscape:current-layer="g3778" /><style
     type="text/css"
     id="style3762">
	.style1{fill:#FFF8ED;}
</style><g
     id="g3778"
     transform="matrix(6.097561,0,0,6.097561,-254.87805,-149.02439)"><circle
       class="color2"
       cx="49.200001"
       cy="25.140978"
       r="0.69999999"
       id="circle3764" /><circle
       class="color2"
       cx="50.799999"
       cy="25.140978"
       r="0.69999999"
       id="circle3766" /><polygon
       class="color2"
       points="46.2,27.7 43,27.7 43.9,29 47,29 "
       id="polygon3768" /><polygon
       class="color2"
       points="53.1,29 56.1,29 57,27.7 53.9,27.7 "
       id="polygon3770" /><polygon
       class="color2"
       points="47.3,29.7 44.3,29.7 45.1,31 48.1,31 "
       id="polygon3772" /><polygon
       class="color2"
       points="51.9,31 54.9,31 55.7,29.7 52.7,29.7 "
       id="polygon3774" /><polygon
       class="color2"
       points="41.8,25.7 42.6,27.1 46.6,27.1 48.8,31 50,29 51.2,31 53.5,27.1 57.4,27.1 58.2,25.7 52.7,25.7 51.2,28.4 50,26.5 48.9,28.4 47.4,25.7 "
       id="polygon3776" /></g></svg>